<?xml version="1.0" encoding="UTF-8"?>
<svg xmlns="http://www.w3.org/2000/svg" xmlns:xlink="http://www.w3.org/1999/xlink" width="375pt" height="374.999991pt" viewBox="0 0 375 374.999991" version="1.2">
<defs>
<clipPath id="clip1">
  <path d="M 63.886719 37.5 L 310.324219 37.5 L 310.324219 320.523438 L 63.886719 320.523438 Z M 63.886719 37.5 "/>
</clipPath>
</defs>
<g id="surface1">
<path style=" stroke:none;fill-rule:nonzero;fill:rgb(0%,29.019165%,67.83905%);fill-opacity:1;" d="M 266.988281 132.554688 C 266.488281 131.628906 265.832031 130.71875 264.464844 130.023438 L 244.953125 118.679688 C 244.683594 118.523438 244.394531 118.40625 244.085938 118.328125 C 243.988281 118.304688 243.894531 118.304688 243.785156 118.285156 C 243.585938 118.25 243.382812 118.214844 243.179688 118.21875 L 243.140625 118.214844 L 243.140625 118.226562 C 242.5625 118.234375 241.996094 118.390625 241.496094 118.679688 L 197.589844 144.199219 L 197.550781 144.121094 L 194.007812 146.183594 C 189.734375 148.664062 184.476562 148.664062 180.203125 146.183594 L 161.007812 135.03125 C 159.945312 134.410156 159.289062 133.265625 159.289062 132.023438 C 159.289062 130.78125 159.945312 129.632812 161.007812 129.011719 L 180.203125 117.867188 C 184.476562 115.386719 189.734375 115.386719 194.007812 117.867188 L 198.628906 120.554688 C 199.695312 121.171875 201.007812 121.171875 202.074219 120.554688 L 219.953125 110.167969 C 221.019531 109.546875 221.675781 108.402344 221.675781 107.160156 C 221.675781 105.917969 221.019531 104.773438 219.953125 104.152344 L 194.007812 89.074219 C 189.734375 86.59375 184.476562 86.59375 180.203125 89.074219 L 116.648438 126.007812 C 112.046875 128.683594 112.046875 135.363281 116.648438 138.035156 L 180.203125 174.972656 C 184.476562 177.449219 189.734375 177.449219 194.007812 174.972656 L 243.140625 146.417969 L 243.140625 211.460938 L 227.355469 220.664062 L 194.007812 240.101562 C 192.949219 240.710938 191.824219 241.175781 190.648438 241.496094 C 187.125 242.4375 183.371094 241.933594 180.203125 240.101562 L 134.515625 213.550781 C 132.378906 212.3125 131.0625 210.015625 131.066406 207.535156 L 131.066406 169.621094 C 131.066406 168.382812 130.40625 167.230469 129.339844 166.617188 L 111.46875 156.222656 C 110.402344 155.601562 109.085938 155.601562 108.015625 156.222656 C 106.949219 156.84375 106.292969 157.996094 106.292969 159.234375 L 106.292969 221.933594 C 106.292969 224.414062 107.609375 226.699219 109.746094 227.949219 L 180.203125 268.898438 C 182.273438 270.097656 184.621094 270.726562 187.007812 270.746094 L 187.058594 270.746094 C 187.394531 270.746094 187.730469 270.707031 188.066406 270.6875 C 188.328125 270.667969 188.589844 270.667969 188.847656 270.640625 C 189.203125 270.59375 189.558594 270.503906 189.90625 270.4375 C 190.148438 270.378906 190.386719 270.351562 190.621094 270.292969 C 191.003906 270.195312 191.371094 270.050781 191.734375 269.914062 C 191.949219 269.835938 192.148438 269.789062 192.34375 269.710938 C 192.910156 269.476562 193.46875 269.207031 194 268.898438 L 254.789062 233.570312 L 264.425781 228.066406 C 266.582031 226.835938 267.921875 224.53125 267.921875 222.03125 L 267.921875 136.03125 C 267.921875 134.789062 267.582031 133.59375 266.988281 132.554688 "/>
<g clip-path="url(#clip1)" clip-rule="nonzero">
<path style=" stroke:none;fill-rule:nonzero;fill:rgb(11.759949%,17.248535%,42.749023%);fill-opacity:1;" d="M 193.835938 68.300781 C 191.785156 67.113281 189.472656 66.476562 187.105469 66.457031 C 184.746094 66.476562 182.425781 67.113281 180.375 68.300781 L 95.472656 117.640625 C 91.214844 120.117188 88.589844 124.6875 88.589844 129.636719 L 88.589844 228.320312 C 88.589844 233.273438 91.214844 237.847656 95.472656 240.316406 L 180.375 289.652344 C 182.457031 290.863281 184.804688 291.503906 187.203125 291.515625 C 189.597656 291.503906 191.957031 290.863281 194.035156 289.664062 L 278.566406 240.539062 C 282.824219 238.070312 285.449219 233.496094 285.449219 228.542969 L 285.449219 200.03125 C 285.441406 198.789062 286.105469 197.644531 287.164062 197.027344 L 305.167969 186.570312 C 306.226562 185.953125 307.542969 185.953125 308.601562 186.570312 C 309.671875 187.191406 310.324219 188.335938 310.324219 189.574219 L 310.324219 242.679688 C 310.316406 244.949219 309.757812 247.175781 308.699219 249.171875 C 308.429688 250.480469 307.015625 252.019531 305.011719 253.601562 C 304.972656 253.640625 304.914062 253.679688 304.867188 253.714844 C 299.785156 257.699219 291.371094 261.808594 289.878906 262.679688 L 194.035156 318.371094 C 191.890625 319.613281 189.445312 320.25 186.972656 320.222656 L 186.863281 320.222656 L 186.863281 320.214844 C 184.582031 320.15625 182.351562 319.515625 180.375 318.371094 L 70.769531 254.675781 C 66.507812 252.207031 63.886719 247.632812 63.886719 242.679688 L 63.886719 115.289062 C 63.886719 113.0625 64.164062 110.800781 65.136719 108.878906 C 65.269531 108.382812 66.597656 105.9375 69.332031 103.921875 C 70.367188 103.222656 72.1875 102.285156 73.898438 101.289062 L 180.070312 39.59375 C 182.207031 38.355469 184.640625 37.71875 187.105469 37.75 C 189.582031 37.71875 192.007812 38.355469 194.144531 39.59375 L 292.113281 96.519531 C 292.335938 96.65625 292.507812 96.820312 292.699219 96.976562 L 293.941406 97.691406 C 297.273438 99.46875 302.492188 102.175781 305.320312 104.339844 L 305.550781 104.515625 C 305.589844 104.546875 305.628906 104.574219 305.667969 104.597656 C 305.765625 104.683594 305.832031 104.765625 305.925781 104.851562 C 306.96875 105.726562 307.851562 106.757812 308.535156 107.90625 C 308.554688 107.917969 308.566406 107.941406 308.585938 107.957031 L 308.574219 107.960938 C 309.71875 109.886719 310.328125 112.085938 310.328125 114.328125 L 310.328125 160.972656 C 310.328125 162.210938 309.671875 163.355469 308.605469 163.976562 L 290.601562 174.441406 C 289.542969 175.050781 288.222656 175.050781 287.164062 174.441406 C 286.097656 173.820312 285.441406 172.675781 285.441406 171.4375 L 285.441406 129.371094 C 285.441406 124.414062 282.8125 119.835938 278.550781 117.363281 L 193.835938 68.300781 L 193.835938 68.304688 Z M 193.835938 68.300781 "/>
</g>
</g>
</svg>
